<svg width="215" height="64" viewBox="0 0 215 64" fill="none" xmlns="http://www.w3.org/2000/svg">
<g clip-path="url(#clip0)">
<path d="M5.93542 17.9503L8.46052 16.4863L4.88412 19.7778L10.4845 16.5453L4.2553 21.3695L11.752 17.0365L3.5184 23.5507L12.99 18.078L3.02714 25.5649L13.7662 19.3651L2.72255 27.2155L14.0806 20.6621L2.51622 29.3476L13.7662 22.8531L2.41797 30.7232L13.1767 24.5136L2.4671 31.9808L12.5675 26.1446L2.53587 33.8574L12.145 28.3062L2.71273 35.2133L11.9092 29.8978L2.91906 36.4415L11.9092 31.2537L3.16469 37.8269L11.8994 32.7767L3.4398 38.8094L12.0566 33.828L3.82299 40.0179L12.2826 35.1347L4.2553 41.4033L12.6068 36.579L4.80551 42.6707L13.0784 37.8858L5.55224 44.2526L13.7171 39.5365L5.9649 45.1467L14.2083 40.3913L7.0162 46.7777L15.1614 42.0714L7.5566 47.603L15.7804 42.8574L8.70615 49.1456L17.0282 44.341L9.37427 49.912L17.7356 45.0779L10.0915 50.7471L18.61 45.8246L11.2116 51.8967L19.907 46.8759L12.6854 53.1838L21.705 47.9862L13.8251 54.1368L23.2181 48.7133L15.4267 55.198L25.2912 49.5091L17.264 56.318L27.9932 50.1281L19.0522 57.1925L30.9113 50.3541L20.8699 57.9589L34.812 49.912L23.3262 58.7744L41.7683 48.1336L26.2148 59.3835L43.9986 49.1161L28.288 59.6488L44.8927 50.0593L31.2159 59.7962L45.5903 51.4938L35.5292 59.4032L45.7573 53.4982L41.6504 57.6248L44.5783 55.9349" stroke="white" stroke-width="0.982529" stroke-linecap="round" stroke-linejoin="round"/>
<path d="M17.1557 6.74941L20.1425 5.02016L15.9668 9.55944L27.0301 3.173L15.9963 10.6795L29.4274 2.92737L16.3991 11.9765L32.0311 2.95684L17.5388 13.411L35.1359 3.2516L19.3369 14.3935L37.7888 3.74287L23.4438 13.8531L39.8521 4.38151L29.7713 12.3891L42.1414 5.24614L33.3379 12.507L44.2243 6.22867L35.1261 12.8411L45.4034 6.90661L36.934 13.3029L46.6414 7.70246L38.339 13.8924L47.7811 8.44918L40.3925 14.9142L49.3433 9.75594L41.6599 15.6904L50.3848 10.6599L42.7309 16.5157L51.3182 11.554L44.3029 17.852L52.6151 13.0474L45.5606 19.3553L53.8433 14.5703L46.4841 20.4557L54.6195 15.7592L47.0835 21.507L55.2876 16.781L48.0464 23.1871L56.2014 18.4808L48.4983 24.3563L56.7319 19.6009L49.0289 25.8105L57.3706 20.9863L49.3237 26.8814L57.7046 22.0474L49.5791 28.3061L58.1369 23.3738L49.7756 29.4065L58.4612 24.3956L49.8247 30.7231L58.6872 25.6041L49.8346 32.0397L58.9033 26.8028L49.7068 33.6707L59.1588 28.2177L49.4514 35.2133L59.2177 29.5736L48.6555 37.9349L59.316 31.7842L48.125 39.4578L59.2374 33.0419L47.7811 41.1379L59.0998 34.6041L48.0562 42.818L58.8051 36.6085L48.6064 43.9087L58.4415 38.2395L50.0606 45.2645L57.6457 40.8825L52.0256 45.9425L56.7614 43.2012" stroke="white" stroke-width="0.982529" stroke-linecap="round" stroke-linejoin="round"/>
<path d="M9.15625 18.304L13.4401 15.828L11.1213 18.8738L14.5405 16.899L11.9073 19.8072L15.2086 17.9011L12.1038 21.8902L15.8767 19.709L11.1017 24.6511L16.0045 21.8214L10.5907 26.4491L15.5623 23.5703L10.2862 27.8542L14.9925 25.1424L10.07 29.8192L14.2654 27.4022L9.96192 31.6565L13.9117 29.3771L10.129 33.4447L13.8331 31.3028L10.2469 34.7319L13.8331 32.6587L10.5023 35.8323L14.0099 33.8083L10.7872 36.9622L14.2163 34.9873L11.1803 38.2984L14.57 36.3334L11.6519 39.4283L14.9826 37.5026L12.1726 40.6663L15.4837 38.7504L12.7916 41.7471L16.1027 39.8312L13.5383 42.9556L16.8102 41.0692L14.4226 44.1838L17.7829 42.2384L15.6999 45.6772L19.1093 43.7122L16.8003 46.7482L20.3178 44.7144L18.1857 47.9272L21.8505 45.805L19.8462 49.0375L23.6584 46.8366L21.3003 49.9316L25.5055 47.5047L23.1573 50.7176L27.726 48.0844L24.6999 51.2875L29.7304 48.3792L27.3134 51.9359L33.9749 48.0943L29.868 52.1914L40.214 46.2176L32.5503 52.1324L42.5721 46.3454L35.3407 51.71L43.869 46.7875L41.5109 50.02L45.4116 47.77L42.9945 50.6587L46.3351 48.7231L43.8297 52.1619L47.2096 50.2067L43.7806 53.7536L47.6419 51.5233" stroke="white" stroke-width="0.982529" stroke-linecap="round" stroke-linejoin="round"/>
<path d="M4.76619 16.4078L7.6843 14.7179L3.20397 18.7757L10.5435 14.541L2.53585 20.4657L12.0074 14.993L1.68105 22.9416L6.81967 19.9744L1.28804 24.553L6.11225 21.7724L0.816422 26.8816L5.25745 24.3172L0.59044 29.2102L4.64828 26.8619L0.492188 30.8412L4.47143 28.5421L0.541314 32.3346L4.31422 30.1632L0.59044 33.6414L4.32405 31.4896L0.708344 34.9776L4.37318 32.8652L0.914675 36.1665L4.4223 34.1326L1.22908 37.9547L4.73671 35.9307L1.67122 39.6152L5.0413 37.6698L2.04458 40.8237L5.42448 38.8684L2.65375 42.6217L5.99435 40.6959L3.42012 44.2527L6.72142 42.3466L3.88191 45.2549L7.19303 43.3389L4.71706 46.7778L8.01836 44.8717L5.76837 48.399L9.06966 46.5027L6.74107 49.8335L10.0915 47.8881L7.62535 50.8455L10.9758 48.9099L8.88298 52.2898L12.2727 50.3345L10.2094 53.5867L13.6876 51.5824L11.074 54.3531L14.5522 52.3389L12.312 55.4339L15.9768 53.3214L13.8153 56.4557L17.4899 54.3334L14.8469 57.1435L18.6788 54.9328L16.4288 58.0671L20.3884 55.7778L17.8731 58.7843L22.0292 56.3771L19.0718 59.3738L23.4244 56.8585L21.0762 60.0714L25.7334 57.3891L22.7759 60.6511L27.8163 57.7428L24.6919 61.0539L30.1842 57.8902L26.6176 61.4371L32.9451 57.7919L28.5237 61.5943L35.6864 57.4579L30.4593 61.7221L39.754 56.3575L33.1416 61.5845L47.7518 53.1544L35.8829 61.3094L47.4669 54.6282L42.5936 59.3345L45.8261 57.4677" stroke="white" stroke-width="0.982529" stroke-linecap="round" stroke-linejoin="round"/>
<path d="M21.2422 6.60224L30.9791 0.982178L25.6243 5.29548L33.0031 1.04113L28.4146 4.91229L34.7814 1.23764L31.6275 4.81404L37.1297 1.63065L34.3 5.01055L39.2716 2.14156L36.2651 5.34461L40.8731 2.68195L38.6624 5.97343L43.015 3.46798L40.1362 6.43521L44.2235 4.07714L41.4233 6.9756L45.4026 4.68631L43.2508 7.84023L47.0631 5.63937L44.5281 8.5673L48.2224 6.43521L45.6286 9.28455L49.2934 7.16229L46.8665 10.0902L50.3643 8.06621L47.6624 10.778L51.1504 8.75398L48.6449 11.6328L52.1329 9.61861L49.7552 12.6251L53.1154 10.6797L50.6788 13.6765L54.0292 11.7409L51.848 15.0225L55.1886 13.0869L52.4277 15.8184L55.729 13.9123L53.4888 17.4395L56.7803 15.5433L54.0292 18.2649L57.3207 16.3686L54.8545 20.0039L58.1558 18.0978L55.277 20.898L58.5783 18.9919L55.6995 21.91L59.0499 19.9745L56.1907 23.433L59.551 21.4876L56.7213 25.2605L60.1307 23.2856L56.9866 26.7048L60.4844 24.6906L57.2912 28.5225L60.8086 26.4886L57.3894 30.6447L61.1034 28.5126L57.3993 32.5508L61.182 30.3598L57.2322 34.4569L61.2508 32.1382L56.8097 36.9427L61.0444 34.4962L56.122 39.6054L60.7104 36.9624L55.4145 41.482L60.3272 38.6425" stroke="white" stroke-width="0.982529" stroke-linecap="round" stroke-linejoin="round"/>
<path d="M15.9533 5.21664L19.3823 3.23193L14.2044 8.34108L26.3877 1.30617L13.998 9.60854L28.8932 1.00159L14.0766 11.0922L18.0166 8.81269L14.6662 12.8411L18.0068 10.9153L15.6389 14.2952L19.1563 12.2712L16.8965 15.4055L22.2808 12.3007L19.0974 16.3192L29.0897 10.5518L23.784 15.7985L32.8135 10.5812L28.451 14.4622L34.7589 10.8269L31.3495 14.305L36.5864 11.2788L33.4325 14.5015L38.1388 11.7799L36.1443 15.1402L40.3495 12.7133L37.7556 15.7199L41.6268 13.4797L39.0525 16.3978L42.8353 14.2264L40.939 17.567L44.4564 15.5332L42.511 18.8836L45.9499 16.8989L43.523 19.9349L46.8833 17.9895L44.3189 20.8781L47.689 18.9327L45.4193 22.4797L48.7206 20.5736L46.0285 23.5506L49.3691 21.6249L46.6573 24.9458L49.9783 23.0299L47.0307 25.9775L50.4007 24.0321L47.4433 27.3137L50.8429 25.3487L47.6398 28.4141L51.1082 26.4L47.856 29.6325L51.4128 27.579L47.8953 30.9294L51.5503 28.817L47.9051 32.4818L51.7075 30.2809L47.689 33.9949L51.7173 31.6761L47.07 36.6183L51.5994 34.0047L46.5296 38.151L51.3243 35.3803L45.9597 39.9589L50.9804 37.0604L45.832 41.865L50.1256 39.389L46.1169 43.1226L49.6344 41.0888L46.8931 44.8617L50.2141 42.9359L47.9149 46.08L51.6387 43.9283L48.8287 46.7776L59.8822 40.3912L51.0296 47.77L58.7915 43.2798L54.1344 47.7012L57.0426 46.0112" stroke="white" stroke-width="0.982529" stroke-linecap="round" stroke-linejoin="round"/>
<path d="M108.46 38.0526C107.566 38.0526 106.819 38.3866 106.23 39.0449C105.689 39.6541 105.414 40.3615 105.414 41.1672C105.414 41.9925 105.689 42.6999 106.23 43.2894C106.799 43.9772 107.536 44.3113 108.46 44.3113C109.354 44.3113 110.101 43.9772 110.69 43.3189C111.211 42.7294 111.466 42.0121 111.466 41.1573C111.466 40.332 111.211 39.6246 110.69 39.0351C110.091 38.3866 109.354 38.0526 108.46 38.0526ZM109.167 41.9041C108.981 42.0907 108.755 42.189 108.499 42.189C108.244 42.189 108.018 42.0907 107.831 41.9041C107.644 41.7174 107.546 41.4914 107.546 41.2359C107.546 40.9805 107.644 40.7545 107.831 40.5678C108.018 40.3811 108.244 40.2829 108.499 40.2829C108.755 40.2829 108.981 40.3811 109.167 40.5678C109.354 40.7545 109.452 40.9805 109.452 41.2359C109.442 41.4914 109.354 41.7174 109.167 41.9041ZM93.2111 50.0099C93.7023 49.7938 94.2133 49.6955 94.734 49.6955C95.2744 49.6955 95.7951 49.8036 96.2864 50.0099C96.7777 50.2261 97.21 50.5012 97.5637 50.8549C97.9174 51.2774 98.1532 51.6409 98.2711 51.9553C98.4381 52.3091 98.6936 52.594 99.0277 52.8003C99.3715 53.0165 99.7449 53.1147 100.138 53.1147C100.442 53.1147 100.708 53.0656 100.914 52.9772L102.083 52.4859C102.604 52.2304 102.968 51.8374 103.184 51.3167C103.253 51.1005 103.292 50.8844 103.292 50.6486C103.292 50.344 103.233 50.0394 103.115 49.725C102.692 48.8309 102.113 47.9761 101.386 47.1802H101.346C100.423 46.237 99.4207 45.5394 98.3399 45.0973C97.21 44.606 96.0015 44.3506 94.734 44.3506C93.5058 44.3506 92.3268 44.5962 91.1969 45.0973C90.1358 45.5198 89.1336 46.2075 88.1904 47.1508C87.3159 48.0252 86.6478 49.0765 86.1762 50.2949C85.7046 51.4935 85.4688 52.7315 85.4688 54.0088C85.4688 55.2566 85.7046 56.4848 86.1762 57.6835C86.6478 58.9116 87.3159 59.963 88.1904 60.8276C89.0648 61.702 90.067 62.38 91.1969 62.8811C92.3268 63.3723 93.5058 63.6278 94.734 63.6278C96.0113 63.6278 97.21 63.3822 98.3399 62.8811C99.4993 62.3898 100.501 61.6922 101.346 60.7981L101.386 60.7588C102.113 59.9531 102.692 59.1082 103.115 58.214C103.233 57.9095 103.292 57.6147 103.292 57.3298C103.292 57.094 103.253 56.868 103.184 56.6617C102.948 56.0918 102.584 55.7086 102.083 55.4924L100.914 55.0012C100.698 54.9029 100.442 54.8636 100.138 54.8636C99.7351 54.8636 99.3617 54.9717 99.0277 55.178C98.6838 55.3942 98.4283 55.6693 98.2711 56.023C98.1532 56.3276 97.9174 56.6911 97.5637 57.1234C97.21 57.4772 96.7875 57.7621 96.2864 57.9684C95.7951 58.1846 95.2744 58.2828 94.734 58.2828C94.2133 58.2828 93.7122 58.1747 93.2111 57.9684C92.6903 57.7523 92.2679 57.4575 91.9338 57.0841C91.5604 56.6813 91.2657 56.2195 91.0495 55.7086C90.8334 55.1387 90.7351 54.5787 90.7351 54.0088C90.7351 52.7807 91.1379 51.7294 91.9338 50.8647C92.2973 50.5012 92.7198 50.2163 93.2111 50.0099ZM109.059 44.8418H107.821C107.281 44.8418 106.809 45.0383 106.406 45.4412C106.004 45.844 105.807 46.3254 105.807 46.8953V61.6038C105.807 62.1442 106.004 62.6158 106.406 63.0186C106.809 63.4215 107.281 63.618 107.821 63.618H109.059C109.629 63.618 110.101 63.4215 110.494 63.0186C110.887 62.6158 111.073 62.1442 111.073 61.6038V46.8953C111.073 46.3254 110.877 45.844 110.494 45.4412C110.101 45.0482 109.619 44.8418 109.059 44.8418ZM93.2111 14.6389C93.7023 14.4227 94.2133 14.3245 94.734 14.3245C95.2744 14.3245 95.7951 14.4326 96.2864 14.6389C96.7777 14.855 97.21 15.1302 97.5637 15.4839C97.9174 15.9064 98.1532 16.2699 98.2711 16.5843C98.4381 16.938 98.6936 17.2229 99.0277 17.4293C99.3715 17.6454 99.7449 17.7437 100.138 17.7437C100.442 17.7437 100.708 17.6946 100.914 17.6061L102.083 17.1149C102.604 16.8594 102.968 16.4664 103.184 15.9457C103.253 15.7295 103.292 15.5133 103.292 15.2775C103.292 14.9729 103.233 14.6684 103.115 14.354C102.692 13.4599 102.113 12.6051 101.386 11.8092H101.346C100.423 10.866 99.4207 10.1684 98.3399 9.72624C97.21 9.23498 96.0015 8.97952 94.734 8.97952C93.5058 8.97952 92.3268 9.22515 91.1969 9.72624C90.1358 10.1487 89.1336 10.8365 88.1904 11.7797C87.3159 12.6542 86.6478 13.7055 86.1762 14.9238C85.7046 16.1225 85.4688 17.3605 85.4688 18.6378C85.4688 19.8856 85.7046 21.1138 86.1762 22.3124C86.6478 23.5406 87.3159 24.5919 88.1904 25.4565C89.0648 26.331 90.067 27.0089 91.1969 27.51C92.3268 28.0013 93.5058 28.2567 94.734 28.2567C96.0113 28.2567 97.21 28.0111 98.3399 27.51C99.4993 27.0188 100.501 26.3212 101.346 25.4271L101.386 25.3878C102.113 24.5821 102.692 23.7371 103.115 22.843C103.233 22.5384 103.292 22.2437 103.292 21.9587C103.292 21.7229 103.253 21.4969 103.184 21.2906C102.948 20.7207 102.584 20.3376 102.083 20.1214L100.914 19.6301C100.698 19.5319 100.442 19.4926 100.138 19.4926C99.7351 19.4926 99.3617 19.6007 99.0277 19.807C98.6838 20.0231 98.4283 20.2983 98.2711 20.652C98.1532 20.9566 97.9174 21.3201 97.5637 21.7524C97.21 22.1061 96.7875 22.391 96.2864 22.5974C95.7951 22.8135 95.2744 22.9118 94.734 22.9118C94.2133 22.9118 93.7122 22.8037 93.2111 22.5974C92.6903 22.3812 92.2679 22.0865 91.9338 21.7131C91.5604 21.3103 91.2657 20.8485 91.0495 20.3376C90.8334 19.7677 90.7351 19.2076 90.7351 18.6378C90.7351 17.4096 91.1379 16.3583 91.9338 15.4937C92.2973 15.14 92.7198 14.855 93.2111 14.6389ZM156.948 14.855H158.539V26.2426C158.539 26.7829 158.736 27.2546 159.119 27.6574C159.512 28.0602 159.984 28.2567 160.554 28.2567H161.792C162.332 28.2567 162.804 28.0602 163.206 27.6574C163.609 27.2546 163.806 26.7829 163.806 26.2426V14.855H165.397C165.967 14.855 166.439 14.6585 166.832 14.2557C167.225 13.8529 167.412 13.3813 167.412 12.8409V11.5341C167.412 10.9642 167.215 10.4828 166.832 10.08C166.439 9.67712 165.967 9.48061 165.397 9.48061H163.806V2.01339C163.806 1.44352 163.609 0.97191 163.206 0.578899C162.804 0.195712 162.332 -0.000793457 161.792 -0.000793457H160.554C159.984 -0.000793457 159.512 0.195712 159.119 0.578899C158.726 0.97191 158.539 1.44352 158.539 2.01339V9.48061H156.948C156.378 9.48061 155.896 9.67712 155.494 10.08C155.091 10.4828 154.894 10.9642 154.894 11.5341V12.8409C154.894 13.3813 155.091 13.8529 155.494 14.2557C155.896 14.6487 156.378 14.855 156.948 14.855ZM118.108 22.3517C118.58 23.5799 119.248 24.6017 120.123 25.4271C120.968 26.3506 121.97 27.0384 123.129 27.51C124.259 28.0013 125.448 28.2567 126.706 28.2567C129.25 28.2567 131.422 27.4707 133.21 25.8888C133.701 25.486 134.143 24.9947 134.517 24.4052C134.733 24.1203 134.831 23.7961 134.831 23.4129C134.831 23.2458 134.821 23.1279 134.792 23.0592C134.723 22.5875 134.477 22.1945 134.045 21.89L132.984 21.1825L132.768 21.0745H134.183C134.674 21.0745 135.106 20.8976 135.46 20.5439C135.814 20.1902 135.99 19.7677 135.99 19.2666V18.628C135.99 17.3801 135.755 16.1422 135.283 14.914C134.831 13.735 134.163 12.6935 133.269 11.7994C132.424 10.9053 131.422 10.2077 130.262 9.71642C129.132 9.22515 127.943 8.9697 126.686 8.9697C125.438 8.9697 124.249 9.21533 123.109 9.71642C121.911 10.2372 120.909 10.9348 120.103 11.7994C119.228 12.6247 118.56 13.6662 118.089 14.914C117.637 16.0439 117.421 17.2819 117.421 18.628C117.421 19.974 117.666 21.2218 118.108 22.3517ZM123.561 15.2088C123.964 14.8059 124.436 14.4915 124.976 14.2557C125.517 14.0199 126.096 13.902 126.706 13.902C127.315 13.902 127.894 14.0199 128.435 14.2557C128.975 14.4915 129.447 14.8059 129.85 15.2088C130.105 15.4642 130.331 15.7884 130.518 16.1618H122.883C122.982 15.9948 123.208 15.6804 123.561 15.2088ZM131.235 21.0745C130.95 21.1924 130.724 21.379 130.567 21.6443L129.928 22.283C129.594 22.5875 129.142 22.8528 128.553 23.0592C127.943 23.2458 127.324 23.3441 126.715 23.3441C126.106 23.3441 125.526 23.2262 124.986 22.9904C124.495 22.7742 124.033 22.4598 123.611 22.0373C123.306 21.6836 123.07 21.3692 122.903 21.0843H131.235V21.0745ZM213.885 14.9238C213.433 13.7448 212.765 12.7033 211.871 11.8092C211.026 10.9151 210.024 10.2175 208.865 9.72624C207.735 9.23498 206.546 8.97952 205.288 8.97952C204.031 8.97952 202.851 9.22515 201.712 9.72624C200.513 10.247 199.511 10.9446 198.705 11.8092C197.831 12.6345 197.163 13.676 196.691 14.9238C196.239 16.0537 196.023 17.2917 196.023 18.6378C196.023 19.9838 196.249 21.2218 196.691 22.3517C197.163 23.5799 197.831 24.6017 198.705 25.4271C199.55 26.3506 200.552 27.0384 201.712 27.51C202.842 28.0013 204.031 28.2567 205.288 28.2567C207.833 28.2567 210.004 27.4707 211.793 25.8888C212.284 25.486 212.726 24.9947 213.099 24.4052C213.315 24.1203 213.414 23.7961 213.414 23.4129C213.414 23.2458 213.404 23.1279 213.374 23.0592C213.306 22.5875 213.06 22.1945 212.628 21.89L211.567 21.1825L211.35 21.0745H212.765C213.256 21.0745 213.689 20.8976 214.043 20.5439C214.396 20.1902 214.573 19.7677 214.573 19.2666V18.628C214.593 17.39 214.357 16.152 213.885 14.9238ZM202.144 15.2088C202.547 14.8059 203.019 14.4915 203.559 14.2557C204.099 14.0199 204.679 13.902 205.288 13.902C205.897 13.902 206.477 14.0199 207.017 14.2557C207.558 14.4915 208.029 14.8059 208.432 15.2088C208.688 15.4642 208.914 15.7884 209.1 16.1618H201.466C201.564 15.9948 201.79 15.6804 202.144 15.2088ZM209.14 21.6443L208.501 22.283C208.167 22.5875 207.715 22.8528 207.125 23.0592C206.516 23.2458 205.897 23.3441 205.288 23.3441C204.679 23.3441 204.099 23.2262 203.559 22.9904C203.068 22.7742 202.606 22.4598 202.183 22.0373C201.879 21.6836 201.643 21.3692 201.476 21.0843H209.818C209.533 21.1924 209.307 21.3889 209.14 21.6443ZM194.235 9.72624C193.94 9.55921 193.626 9.48061 193.301 9.48061H192.024C191.602 9.48061 191.218 9.59851 190.874 9.83432C190.531 10.0701 190.295 10.3747 190.147 10.7579L186.394 20.0624L182.641 10.7579C182.474 10.3845 182.218 10.0701 181.884 9.83432C181.54 9.59851 181.167 9.48061 180.774 9.48061H179.399C179.064 9.48061 178.75 9.55921 178.445 9.72624C178.141 9.89327 177.895 10.1193 177.699 10.3944C177.463 10.6989 177.345 11.0821 177.345 11.5243C177.345 11.8092 177.394 12.0548 177.483 12.271L183.427 26.9795C183.594 27.3528 183.849 27.6672 184.183 27.903C184.527 28.1388 184.901 28.2567 185.294 28.2567H187.347C187.75 28.2567 188.123 28.1388 188.457 27.903C188.801 27.6672 189.057 27.3626 189.214 26.9795L195.158 12.271C195.257 12.0548 195.296 11.8092 195.296 11.5243C195.296 11.0723 195.178 10.6989 194.942 10.3944C194.775 10.1094 194.529 9.89327 194.235 9.72624ZM173.179 9.48061H171.941C171.401 9.48061 170.929 9.67712 170.526 10.08C170.123 10.4828 169.927 10.9642 169.927 11.5341V26.2426C169.927 26.7829 170.123 27.2546 170.526 27.6574C170.929 28.0602 171.401 28.2567 171.941 28.2567H173.179C173.749 28.2567 174.221 28.0602 174.614 27.6574C175.007 27.2546 175.193 26.7829 175.193 26.2426V11.5243C175.193 10.9544 174.997 10.473 174.614 10.0701C174.221 9.67712 173.739 9.48061 173.179 9.48061ZM172.57 2.69134C171.676 2.69134 170.929 3.0254 170.34 3.68369C169.799 4.29286 169.524 5.00028 169.524 5.80595C169.524 6.63128 169.799 7.3387 170.34 7.92822C170.909 8.61599 171.646 8.95005 172.57 8.95005C173.464 8.95005 174.211 8.61599 174.8 7.95769C175.321 7.36817 175.576 6.65093 175.576 5.79613C175.576 4.9708 175.321 4.26338 174.8 3.67386C174.211 3.01557 173.474 2.69134 172.57 2.69134ZM173.277 6.54285C173.091 6.72953 172.865 6.82778 172.609 6.82778C172.354 6.82778 172.128 6.72953 171.941 6.54285C171.754 6.35617 171.656 6.13019 171.656 5.87473C171.656 5.61927 171.754 5.39329 171.941 5.20661C172.128 5.0101 172.354 4.91185 172.609 4.91185C172.865 4.91185 173.091 5.0101 173.277 5.19678C173.464 5.38347 173.562 5.60945 173.562 5.8649C173.562 6.13019 173.474 6.35617 173.277 6.54285ZM153.833 26.4489V16.6924C153.833 15.6312 153.617 14.6291 153.194 13.6858C152.772 12.723 152.173 11.878 151.387 11.1706C149.736 9.70659 147.791 8.97952 145.55 8.97952C144.136 8.97952 142.799 9.29393 141.552 9.93257C140.304 10.5712 139.302 11.426 138.545 12.5166C138.378 12.8016 138.299 13.0865 138.299 13.3616C138.299 13.5286 138.309 13.6465 138.339 13.7153C138.407 14.1673 138.633 14.4915 139.007 14.7077L140.137 15.3758C140.372 15.5428 140.648 15.6214 140.952 15.6214C141.473 15.6214 141.886 15.4053 142.19 14.9828C142.544 14.5112 143.006 14.1476 143.566 13.8823C144.175 13.5778 144.843 13.4206 145.55 13.4206C146.12 13.4206 146.661 13.5188 147.181 13.7055C147.633 13.8725 148.017 14.0985 148.351 14.3736L148.39 14.4129C148.763 14.747 149.038 15.1007 149.205 15.474C149.323 15.7295 149.392 15.9653 149.422 16.1815L149.137 16.0734C147.977 15.6214 146.788 15.4053 145.56 15.4053C143.34 15.4053 141.424 15.985 139.793 17.1345C139.066 17.6258 138.447 18.3135 137.955 19.188C137.484 20.0624 137.248 20.9467 137.248 21.8408C137.248 22.7153 137.484 23.5897 137.955 24.4544C138.407 25.2993 139.017 25.9871 139.793 26.5078C141.375 27.6672 143.291 28.2371 145.56 28.2371C146.857 28.2371 148.046 28.0209 149.137 27.5984L149.775 27.3135C150.031 27.736 150.443 27.9522 151.013 27.9522H152.32C152.743 27.9522 153.106 27.8048 153.401 27.51C153.686 27.2349 153.833 26.8812 153.833 26.4489ZM149.304 22.3124C149.186 22.5286 148.93 22.7742 148.527 23.0592C148.193 23.2458 147.761 23.4227 147.221 23.5897C146.7 23.7273 146.15 23.8059 145.56 23.8059C144.971 23.8059 144.401 23.7371 143.86 23.5897C143.34 23.4522 142.917 23.2557 142.583 23.0199C141.945 22.617 141.63 22.2338 141.63 21.8507C141.63 21.4478 141.945 21.045 142.583 20.652C143.035 20.3965 143.458 20.2197 143.86 20.1214C144.401 19.9838 144.971 19.9052 145.56 19.9052C146.13 19.9052 146.68 19.974 147.221 20.1214C147.741 20.2393 148.174 20.4162 148.527 20.652C148.901 20.8878 149.166 21.1236 149.304 21.3594C149.402 21.5264 149.441 21.6934 149.441 21.8507C149.441 22.0472 149.402 22.1945 149.304 22.3124ZM114.895 14.855C115.298 14.855 115.662 14.747 115.996 14.5406C116.33 14.3245 116.576 14.0297 116.743 13.6564L117.273 12.5265C117.391 12.3103 117.45 12.045 117.45 11.711C117.45 11.4064 117.401 11.1411 117.313 10.9348C117.126 10.3944 116.762 10.0112 116.212 9.80485C115.269 9.43148 114.316 9.23498 113.343 9.23498C112.184 9.23498 111.093 9.51009 110.052 10.0505C109.678 9.67712 109.216 9.48061 108.676 9.48061H107.438C106.868 9.48061 106.397 9.67712 106.004 10.08C105.611 10.4828 105.424 10.9642 105.424 11.5341V26.2426C105.424 26.7829 105.62 27.2546 106.004 27.6574C106.397 28.0602 106.868 28.2567 107.438 28.2567H108.676C109.216 28.2567 109.688 28.0602 110.091 27.6574C110.494 27.2546 110.69 26.7829 110.69 26.2426V17.8616C110.69 16.9184 110.975 16.1127 111.535 15.4544C111.771 15.1695 112.056 14.9631 112.38 14.8157C112.685 14.6487 113.009 14.5701 113.333 14.5701C113.589 14.5701 113.903 14.6291 114.257 14.747C114.473 14.8157 114.679 14.855 114.895 14.855ZM169.141 47.1802C168.296 46.2861 167.294 45.5886 166.134 45.0973C165.004 44.606 163.816 44.3506 162.558 44.3506C161.3 44.3506 160.121 44.5962 158.982 45.0973C157.783 45.618 156.781 46.3156 155.975 47.1802C155.101 48.0056 154.432 49.0471 153.961 50.2949C153.509 51.4248 153.293 52.6628 153.293 54.0088C153.293 55.3549 153.519 56.5929 153.961 57.7228C154.432 58.9509 155.101 59.9728 155.975 60.7981C156.82 61.7217 157.822 62.4094 158.982 62.8811C160.111 63.3723 161.3 63.6278 162.558 63.6278C165.103 63.6278 167.274 62.8418 169.062 61.2599C169.554 60.8571 169.996 60.3658 170.369 59.7763C170.585 59.4913 170.683 59.1671 170.683 58.7839C170.683 58.6169 170.674 58.499 170.644 58.4302C170.575 57.9586 170.33 57.5656 169.897 57.261L168.836 56.5536L168.62 56.4455H170.035C170.526 56.4455 170.959 56.2686 171.312 55.9149C171.666 55.5612 171.843 55.1387 171.843 54.6376V53.999C171.843 52.7512 171.607 51.5132 171.135 50.285C170.713 49.1158 170.035 48.0744 169.141 47.1802ZM159.414 50.57C159.817 50.1671 160.288 49.8527 160.829 49.6169C161.369 49.3811 161.949 49.2632 162.558 49.2632C163.167 49.2632 163.747 49.3811 164.287 49.6169C164.828 49.8527 165.299 50.1671 165.702 50.57C165.958 50.8254 166.184 51.1497 166.37 51.523H158.736C158.844 51.3658 159.06 51.0416 159.414 50.57ZM166.419 57.0055L165.781 57.6442C165.447 57.9488 164.995 58.214 164.405 58.4204C163.796 58.6071 163.177 58.7053 162.568 58.7053C161.959 58.7053 161.379 58.5874 160.839 58.3516C160.347 58.1354 159.886 57.821 159.463 57.3985C159.158 57.0448 158.923 56.7304 158.756 56.4455H167.097C166.812 56.5634 166.586 56.7501 166.419 57.0055ZM149.166 36.6377H147.928C147.358 36.6377 146.887 36.8244 146.494 37.1879C146.101 37.5515 145.914 38.0034 145.914 38.5536V61.7217C145.914 62.2424 146.11 62.6846 146.494 63.0677C146.887 63.4411 147.358 63.6376 147.928 63.6376H149.166C149.707 63.6376 150.178 63.4509 150.581 63.0677C150.984 62.6944 151.18 62.2424 151.18 61.7217V38.5438C151.18 38.0231 150.984 37.5809 150.581 37.1978C150.178 36.8244 149.707 36.6377 149.166 36.6377ZM124.367 45.1661C123.424 44.7927 122.471 44.5962 121.498 44.5962C120.339 44.5962 119.248 44.8713 118.207 45.4117C117.833 45.0383 117.371 44.8418 116.831 44.8418H115.593C115.023 44.8418 114.552 45.0383 114.159 45.4412C113.766 45.844 113.579 46.3254 113.579 46.8953V61.6038C113.579 62.1442 113.775 62.6158 114.159 63.0186C114.552 63.4215 115.023 63.618 115.593 63.618H116.831C117.371 63.618 117.843 63.4215 118.246 63.0186C118.649 62.6158 118.845 62.1442 118.845 61.6038V53.2228C118.845 52.2796 119.13 51.4739 119.69 50.8156C119.926 50.5307 120.211 50.3243 120.535 50.177C120.84 50.0099 121.164 49.9313 121.488 49.9313C121.744 49.9313 122.058 49.9903 122.412 50.1082C122.628 50.177 122.834 50.2163 123.05 50.2163C123.453 50.2163 123.817 50.1082 124.151 49.9019C124.485 49.6857 124.731 49.3909 124.898 49.0176L125.428 47.8877C125.546 47.6715 125.605 47.4062 125.605 47.0722C125.605 46.7676 125.556 46.5023 125.468 46.296C125.281 45.7556 124.907 45.3724 124.367 45.1661ZM133.711 50.0099C134.202 49.7938 134.713 49.6955 135.234 49.6955C135.774 49.6955 136.295 49.8036 136.786 50.0099C137.278 50.2163 137.71 50.5012 138.064 50.8549C138.417 51.2774 138.653 51.6409 138.771 51.9553C138.938 52.3091 139.193 52.594 139.527 52.8003C139.871 53.0165 140.245 53.1147 140.638 53.1147C140.942 53.1147 141.208 53.0656 141.414 52.9772L142.583 52.4859C143.104 52.2304 143.467 51.8374 143.684 51.3167C143.752 51.1005 143.792 50.8844 143.792 50.6486C143.792 50.344 143.733 50.0394 143.615 49.725C143.192 48.8309 142.613 47.9761 141.886 47.1802H141.846C140.923 46.237 139.921 45.5394 138.84 45.0973C137.71 44.606 136.501 44.3506 135.234 44.3506C134.006 44.3506 132.827 44.5962 131.697 45.0973C130.636 45.5198 129.633 46.2075 128.69 47.1508C127.816 48.0252 127.148 49.0765 126.676 50.2949C126.204 51.4935 125.969 52.7315 125.969 54.0088C125.969 55.2566 126.204 56.4848 126.676 57.6835C127.148 58.9116 127.816 59.963 128.69 60.8276C129.565 61.702 130.567 62.38 131.697 62.8811C132.827 63.3723 134.006 63.6278 135.234 63.6278C136.511 63.6278 137.71 63.3822 138.84 62.8811C139.999 62.3898 141.001 61.6922 141.846 60.7981L141.886 60.7588C142.613 59.9531 143.192 59.1082 143.615 58.214C143.733 57.9095 143.792 57.6147 143.792 57.3298C143.792 57.094 143.752 56.868 143.684 56.6617C143.448 56.0918 143.084 55.7086 142.583 55.4924L141.414 55.0012C141.198 54.9029 140.942 54.8636 140.638 54.8636C140.235 54.8636 139.862 54.9717 139.527 55.178C139.184 55.3942 138.928 55.6693 138.771 56.023C138.653 56.3276 138.417 56.6911 138.064 57.1234C137.71 57.4772 137.287 57.7621 136.786 57.9684C136.285 58.1747 135.774 58.2828 135.234 58.2828C134.713 58.2828 134.212 58.1747 133.711 57.9684C133.19 57.7523 132.768 57.4575 132.434 57.0841C132.06 56.6813 131.766 56.2195 131.549 55.7086C131.333 55.1387 131.235 54.5787 131.235 54.0088C131.235 52.7807 131.638 51.7294 132.434 50.8647C132.787 50.5012 133.21 50.2163 133.711 50.0099Z" fill="white"/>
</g>
<defs>
<clipPath id="clip0">
<rect width="214.594" height="63.6286" fill="white"/>
</clipPath>
</defs>
</svg>
